<?xml version="1.0" encoding="utf-8"?>
<!-- Generator: Adobe Illustrator 24.1.3, SVG Export Plug-In . SVG Version: 6.00 Build 0)  -->
<svg version="1.1" id="Layer_1" xmlns="http://www.w3.org/2000/svg" xmlns:xlink="http://www.w3.org/1999/xlink" x="0px" y="0px"
	 viewBox="0 0 412.1 125.6" style="enable-background:new 0 0 412.1 125.6;" xml:space="preserve">
<style type="text/css">
	.st0{fill:#FFFFFF;}
	.st1{fill:#F3F3F4;}
</style>
<g id="Layer_2_1_">
	<g id="Layer_1-2">
		<rect class="st0" width="412.1" height="125.6"/>
		<path class="st1" d="M366.6,88h-75.8V75.8h67.9c2.9,0,5.3-1.2,5.3-2.7s-2.4-2.7-5.3-2.7h-59.6c-8.4,0.3-15.5-6.2-15.9-14.6
			c0.4-8.4,7.5-14.9,15.9-14.6h75.8v12.3H307c-2.9,0-5.3,1.2-5.3,2.7s2.4,2.7,5.3,2.7h59.6c8.4-0.3,15.4,6.2,15.8,14.6
			C382.1,81.9,375,88.4,366.6,88C366.7,88,366.6,88,366.6,88 M253.5,75.4H200V88h-20.8V41.2h74.3c14.6,0,26.4,7.6,26.4,17
			S268.1,75.2,253.5,75.4 M168.9,88h-20.8V41.2h20.8V88z M80.3,88L21.4,41.3h27.8L80.4,66l30.7-24.7h27.3L80.3,88z M250.6,52.9h-51
			v9.7h51c4.4,0,7.9-2.1,7.9-4.9C258.5,55.1,255,52.9,250.6,52.9"/>
	</g>
</g>
</svg>
