<svg xmlns="http://www.w3.org/2000/svg" viewBox="0 0 412.13 125.59"><defs><style>.cls-1{fill:#da002d;}.cls-2{fill:#fff;}</style></defs><g id="Layer_2" data-name="Layer 2"><g id="Layer_1-2" data-name="Layer 1"><rect class="cls-1" width="412.13" height="125.59"/><path class="cls-2" d="M366.59,88h-75.8V75.85h67.9c2.9,0,5.3-1.2,5.3-2.7s-2.4-2.7-5.3-2.7h-59.6a15.36,15.36,0,0,1-15.9-14.6,15.36,15.36,0,0,1,15.9-14.6h75.8v12.3H307c-2.9,0-5.3,1.2-5.3,2.7s2.4,2.7,5.3,2.7h59.6a15.27,15.27,0,0,1,15.8,14.6A15.1,15.1,0,0,1,366.59,88m-113.1-12.6H200V88h-20.8V41.25h74.3c14.6,0,26.4,7.6,26.4,17s-11.8,17-26.4,17.1M168.89,88h-20.8V41.25h20.8Zm-88.6,0-58.9-46.7h27.8L80.39,66l30.7-24.7h27.3Zm170.3-35.1h-51v9.7h51c4.4,0,7.9-2.1,7.9-4.9,0-2.6-3.5-4.8-7.9-4.8"/></g></g></svg>